<svg
	xmlns="http://www.w3.org/2000/svg"
	height="16"
	viewBox="0 0 16 16"
	width="16">
	
	<path d="
		M5.83 5.146
		a.5.5 0 0 0 0 .708
		L7.975 8l-2.147 2.146
		a.5.5 0 0 0 .707.708
		l2.147-2.147 2.146 2.147
		a.5.5 0 0 0 .707-.708
		L9.39 8l2.146-2.146
		a.5.5 0 0 0-.707-.708
		L8.683 7.293 6.536 5.146
		a.5.5 0 0 0-.707 0
		z
	"/>
	
	<path d="
		M13.683 1
		a2 2 0 0 1 2 2
		v10
		a2 2 0 0 1-2 2
		h-7.08
		a2 2 0 0 1-1.519-.698
		L.241 8.65
		a1 1 0 0 1 0-1.302
		L5.084 1.7
		A2 2 0 0 1 6.603 1
		h7.08
		z
		m-7.08 1
		a1 1 0 0 0-.76.35
		L1 8
		l4.844 5.65
		a1 1 0 0 0 .759.35
		h7.08
		a1 1 0 0 0 1-1
		V3
		a1 1 0 0 0-1-1
		h-7.08
		z
	"/>

</svg>