<svg
	xmlns="http://www.w3.org/2000/svg"
	height="16"
	viewBox="0 0 16 16"
	width="16">
	
	<path
		fill-rule="evenodd"
		d="
			M6 3.5
			a.5.5 0 0 1 .5-.5
			h8
			a.5.5 0 0 1 .5.5
			v9
			a.5.5 0 0 1-.5.5
			h-8
			a.5.5 0 0 1-.5-.5
			v-2
			a.5.5 0 0 0-1 0
			v2
			A1.5 1.5 0 0 0 6.5 14
			h8
			a1.5 1.5 0 0 0 1.5-1.5
			v-9
			A1.5 1.5 0 0 0 14.5 2
			h-8
			A1.5 1.5 0 0 0 5 3.5
			v2
			a.5.5 0 0 0 1 0
			v-2
			z
		"/>
	
	<path
		fill-rule="evenodd"
		d="
			M11.854 8.354
			a.5.5 0 0 0 0-.708
			l-3-3
			a.5.5 0 1 0-.708.708
			L10.293 7.5
			H1.5
			a.5.5 0 0 0 0 1
			h8.793
			l-2.147 2.146
			a.5.5 0 0 0 .708.708
			l3-3
			z
		"/>

</svg>